<svg width="256" height="256" xmlns="http://www.w3.org/2000/svg">
 <!-- Created with SVG-edit - http://svg-edit.googlecode.com/ -->
 <g>
  <title>Layer 1</title>
  <text stroke="#000000" transform="matrix(8.87844 0 0 8.72942 -233.862 -581.242)" xml:space="preserve" text-anchor="middle" font-family="serif" font-size="24" id="svg_1" y="83.996908" x="41.095238" stroke-width="0" fill="#000000">SL</text>
  <path stroke="#000000" transform="rotate(-0.480466 123.841 203.695)" id="svg_2" d="m130.534821,234.996841c3.324921,-1.028015 6.054001,-1.984222 0.886688,-2.011795c-4.562927,0.515793 -16.365929,-3.277893 -6.905159,-5.142502c5.917473,-1.943512 19.386528,2.546738 19.458336,-5.134079c-1.070877,-4.815796 -18.444374,-1.056763 -12.728806,-7.514496c6.29364,-2.164948 18.774994,2.93924 20.886856,-3.763794c-1.935516,-6.498459 -14.041428,-2.350464 -20.127426,-4.14801c-5.898331,1.02562 -7.451988,-5.502731 -0.83197,-4.517792c15.30571,-0.694138 30.716675,0.325516 45.968338,-1.092651c2.464584,-1.147705 4.284882,-8.212189 1.176117,-8.688507c-22.218719,-0.387741 -44.474396,-0.031128 -66.656128,-1.187195c-7.969643,-0.069412 -1.880768,-7.229645 4.00827,-5.548203c5.609627,-1.546219 7.832405,-5.599655 11.949478,-9.601639c2.10405,-8.747162 -8.007309,-5.501526 -12.137192,-2.94165c-4.610573,2.545532 -12.542519,7.824432 -16.749184,10.597351c-3.688301,2.242752 -12.185562,4.734406 -17.354301,7.743073c-4.419983,1.320038 -9.254547,0.66301 -13.593452,0.901154c0,11.851578 0,23.703156 0,35.557083c12.277985,4.498657 25.196648,8.450333 38.807884,7.997971c7.973198,-0.027512 16.176079,0.223785 23.94165,-1.504318l0,0zm-50.5839,3.802094c-6.267342,-2.026093 -12.524025,-4.079758 -18.734482,-6.226791c0.29652,-14.801544 0.594444,-29.603104 0.891685,-44.404709c4.958969,-0.159164 12.317101,1.91124 15.85038,-1.135727c9.503418,-2.567078 15.671921,-8.244507 24.002785,-12.503815c5.862747,-3.876297 10.545113,-5.199936 16.599854,-8.139175c4.59919,-1.790375 7.08934,-0.877228 12.268036,-0.094543c2.257645,3.109192 5.062103,4.716446 3.607254,10.642822c-3.03627,1.284119 -6.977005,9.922379 -1.010422,9.991776c16.611221,1.339188 33.489105,-0.545731 49.969513,1.796356c4.103561,4.675751 4.885727,15.179749 -2.625259,18.145355c-7.187469,1.748459 -14.765305,0.880814 -22.149719,1.091431c-0.000732,4.420837 0.868896,10.065979 -4.965408,12.287216c-4.307632,4.728409 -4.610535,11.674438 -11.551285,15.133072c-5.837143,5.033585 -14.148102,6.590576 -22.253555,6.423004c-13.290543,0.152008 -27.281487,1.224335 -39.899376,-3.006271l0,0l0,0z" stroke-linecap="null" stroke-linejoin="null" stroke-dasharray="null" stroke-width="0" fill="#000000"/>
 </g>
</svg>
